<svg xmlns="http://www.w3.org/2000/svg" viewBox="0 0 24 24">
  
  <g id="Yuan" data-author="zeelsheladiya">
      <path d="M9.12,7.5l2.9,3.53m2.85-3.53l-2.88,3.5m0,0v5.5m-2.05-5h4.11m-4.11,1.5h4.11m-1.55,3.5v-3h1.55c.28,0,.5-.22,.5-.5s-.22-.5-.5-.5h-1.55v-.5h1.55c.28,0,.5-.22,.5-.5s-.22-.5-.5-.5h-1.41l2.61-3.18c.17-.21,.14-.53-.07-.7s-.53-.15-.7,.07l-2.49,3.03-2.49-3.03c-.17-.21-.49-.24-.7-.07-.21,.18-.24,.49-.07,.7l2.61,3.18h-1.41c-.28,0-.5,.22-.5,.5s.22,.5,.5,.5h1.55v.5h-1.55c-.28,0-.5,.22-.5,.5s.22,.5,.5,.5h1.55v3c0,.28,.22,.5,.5,.5s.5-.22,.5-.5Z"/>
      <path id="circle" d="M12,21.93c-5.49,0-9.93-4.45-9.93-9.93S6.51,2.07,12,2.07s9.93,4.45,9.93,9.93h0c0,5.48-4.45,9.93-9.93,9.93Zm0-18.87C7.07,3.07,3.07,7.07,3.07,12s4,8.93,8.93,8.93,8.93-4,8.93-8.93c0-4.93-4-8.93-8.93-8.93Z"/>
  </g>  
</svg>